<svg xmlns="http://www.w3.org/2000/svg" width="84" height="84" fill="none" viewBox="0 0 84 84">
    <path fill="#3AB2B3" fill-rule="evenodd" d="M37.343 45.388c.19.117.408.184.631.195.224.01.446-.038.646-.138l15.75-7.875c.218-.109.402-.276.53-.484.128-.207.196-.446.196-.69 0-.243-.068-.482-.196-.69-.128-.207-.312-.375-.53-.484l-15.75-7.875c-.2-.1-.423-.147-.647-.137-.224.01-.442.078-.633.197-.19.118-.347.284-.455.48-.109.196-.165.417-.164.642v15.75c.001.222.06.44.168.634.109.194.265.358.454.475zm2.003-14.742l11.502 5.751-11.502 5.751V30.646zm6.592 26.751c0 .348.138.682.384.928s.58.384.928.384H73.5c.348 0 .682-.138.928-.384s.385-.58.385-.928c0-.348-.139-.682-.385-.928s-.58-.385-.928-.385H47.25c-.348 0-.682.139-.928.385s-.385.58-.385.928zM15.75 11.459H21c.348 0 .682-.138.928-.384s.384-.58.384-.928c0-.348-.138-.682-.384-.928s-.58-.385-.928-.385h-5.25c-.348 0-.682.139-.928.385s-.384.58-.384.928c0 .348.138.682.384.928s.58.385.928.385zm10.5 0h5.25c.348 0 .682-.138.928-.384s.385-.58.385-.928c0-.348-.139-.682-.385-.928s-.58-.385-.928-.385h-5.25c-.348 0-.682.139-.928.385s-.384.58-.384.928c0 .348.138.682.384.928s.58.385.928.385zm10.5 0H42c.348 0 .682-.138.928-.384s.385-.58.385-.928c0-.348-.139-.682-.385-.928s-.58-.385-.928-.385h-5.25c-.348 0-.682.139-.928.385s-.385.58-.385.928c0 .348.139.682.385.928s.58.385.928.385z" clip-rule="evenodd"/>
    <path fill="#3AB2B3" fill-rule="evenodd" d="M78.75 3.584H10.5c-.348 0-.682.139-.928.385s-.384.58-.384.928v43.462H5.25c-.348 0-.682.138-.928.384-.246.247-.385.58-.385.929v29.431c0 .244.068.483.197.69.128.207.311.375.529.484.218.109.462.155.705.133.243-.022.474-.11.67-.257l7.528-5.596L42 74.46c.348 0 .682-.139.928-.385s.385-.58.385-.928V69.31H78.75c.348 0 .682-.138.928-.384s.385-.58.385-.928V4.897c0-.348-.139-.682-.385-.928s-.58-.385-.928-.385zm-38.063 68.25l-27.562.098c-.28.002-.553.094-.778.262l-5.784 4.297V50.984h34.124v20.85zm36.75-5.152H43.313v-17.01c0-.348-.139-.682-.385-.928-.246-.247-.58-.385-.928-.385H11.812V16.71h65.626v49.973zm0-52.602H11.814V6.207h65.624v7.875z" clip-rule="evenodd"/>
    <path fill="#3AB2B3" fill-rule="evenodd" d="M14.438 65.7c.778 0 1.54-.231 2.187-.664.648-.432 1.152-1.047 1.45-1.767.298-.72.376-1.511.224-2.275s-.527-1.465-1.077-2.016c-.55-.55-1.253-.926-2.016-1.078-.764-.151-1.556-.073-2.275.225-.72.298-1.335.802-1.767 1.45-.433.647-.664 1.409-.664 2.187 0 1.045.415 2.046 1.153 2.785.739.738 1.74 1.153 2.784 1.153zm0-5.25c.26 0 .513.077.729.221.216.144.384.35.483.59.1.239.125.503.075.757-.05.255-.176.489-.36.672-.183.184-.417.309-.671.36-.255.05-.519.024-.759-.075-.24-.1-.445-.268-.589-.483-.144-.216-.221-.47-.221-.73 0-.348.138-.682.384-.928.247-.246.58-.384.928-.384zm9.187 5.25c.779 0 1.54-.231 2.188-.664.647-.432 1.152-1.047 1.45-1.767.298-.72.376-1.511.224-2.275s-.527-1.465-1.078-2.016c-.55-.55-1.252-.926-2.016-1.078-.764-.151-1.555-.073-2.275.225s-1.334.802-1.767 1.45c-.433.647-.663 1.409-.663 2.187 0 1.045.414 2.046 1.153 2.785.738.738 1.74 1.153 2.784 1.153zm0-5.25c.26 0 .513.077.73.221.215.144.383.35.483.59.099.239.125.503.074.757-.05.255-.175.489-.359.672-.184.184-.417.309-.672.36-.255.05-.518.024-.758-.075-.24-.1-.445-.268-.59-.483-.143-.216-.22-.47-.22-.73 0-.348.138-.682.384-.928s.58-.384.928-.384zm9.188 5.25c.778 0 1.54-.231 2.187-.664.648-.432 1.152-1.047 1.45-1.767.298-.72.376-1.511.224-2.275s-.527-1.465-1.077-2.016c-.55-.55-1.253-.926-2.016-1.078-.764-.151-1.556-.073-2.275.225-.72.298-1.335.802-1.767 1.45-.433.647-.664 1.409-.664 2.187 0 1.045.415 2.046 1.153 2.785.739.738 1.74 1.153 2.785 1.153zm0-5.25c.26 0 .513.077.729.221.215.144.384.35.483.59.1.239.125.503.075.757-.05.255-.176.489-.36.672-.183.184-.417.309-.671.36-.255.05-.519.024-.759-.075-.24-.1-.445-.268-.589-.483-.144-.216-.221-.47-.221-.73 0-.348.138-.682.384-.928.247-.246.58-.384.928-.384z" clip-rule="evenodd"/>
</svg>
