<svg xmlns="http://www.w3.org/2000/svg" width="13" height="16" fill="none" viewBox="0 0 13 16">
    <path fill="#C4C4C4" d="M6.523 0c1.728.008 3.38.728 4.588 1.992C12.327 3.264 13.007 4.985 13 6.77v.04c-.046 2.424-1.346 4.656-2.967 6.4-.918.985-1.935 1.857-3.044 2.593-.298.264-.734.264-1.032 0-1.644-1.12-3.097-2.528-4.275-4.168C.65 10.208.062 8.496 0 6.712.015 2.993 2.936-.008 6.523 0zm0 4.745c-1.14 0-2.057.952-2.057 2.136 0 1.169.902 2.112 2.034 2.128h.023c.543 0 1.063-.216 1.445-.608.398-.408.62-.951.62-1.52 0-1.184-.926-2.136-2.065-2.136z"/>
</svg>
