<svg xmlns="http://www.w3.org/2000/svg" width="20" height="29" fill="none" viewBox="0 0 20 29">
    <path fill="rgb(58, 178, 179)" d="M19.527 7.218c-.103-.387-.313-.8-.468-1.16C17.201 1.598 13.142 0 9.865 0 5.477 0 .645 2.939 0 8.996v1.238c0 .052.018.516.043.748.362 2.886 2.642 5.954 4.345 8.841C6.221 22.916 8.122 25.96 10.006 29c1.161-1.985 2.319-3.995 3.454-5.929.31-.567.668-1.134.978-1.676.206-.36.6-.72.78-1.056C17.052 16.989 20 13.61 20 10.286V8.919c0-.36-.447-1.623-.473-1.701zM9.945 13.43c-1.29 0-2.701-.645-3.398-2.424-.104-.283-.095-.85-.095-.902v-.8c0-2.267 1.927-3.299 3.604-3.299 2.065 0 3.662 1.65 3.662 3.713 0 2.062-1.708 3.712-3.773 3.712z"/>
</svg>
