<svg xmlns="http://www.w3.org/2000/svg" width="88" height="88" fill="none" viewBox="0 0 88 88">
    <path fill="#3AB2B3" d="M41.129 9.623l-28.198.974c-.724.024-1.306.605-1.33 1.33l-.974 28.197c-.013.359.114.709.355.975l38.896 42.773c.527.582 1.433.605 1.99.05l33.06-33.059c.553-.556.53-1.462-.052-1.99L42.093 9.979c-.264-.239-.61-.366-.964-.355zm-.467 2.77L81.963 49.94l-31.02 31.009-37.545-41.292.914-26.35 26.35-.914z"/>
    <path fill="#3AB2B3" d="M27.558 19.692c-1.762 0-3.525.663-4.861 2-2.674 2.673-2.674 7.05 0 9.723 2.673 2.674 7.05 2.674 9.723 0 2.674-2.673 2.674-7.05 0-9.724-1.336-1.336-3.1-2-4.862-2zm-2.913 3.948c1.623-1.622 4.214-1.622 5.837 0 1.622 1.622 1.622 4.214 0 5.837-1.623 1.622-4.214 1.622-5.837 0-1.622-1.623-1.622-4.215 0-5.837zm19.418 14.17c-.357.01-.695.16-.944.416l-1.949 1.939s-.697.679-1.056 1.756c-.359 1.077-.24 2.784 1.056 4.08 1.296 1.297 3.003 1.425 4.08 1.066 1.078-.36 1.756-1.066 1.756-1.066s.3-.269.68-.396c.382-.127.621-.252 1.27.396.647.648.522.888.395 1.269-.127.381-.396.68-.396.68l-1.949 1.939c-1.299 1.299.65 3.248 1.95 1.949l1.938-1.95s.707-.668 1.066-1.745c.359-1.077.23-2.784-1.066-4.08-1.296-1.297-3.003-1.425-4.08-1.066-1.078.359-1.746 1.066-1.746 1.066s-.299.268-.68.395c-.382.127-.621.253-1.27-.395-.647-.649-.522-.888-.395-1.27.127-.38.396-.68.396-.68l1.949-1.948c.891-.877.245-2.392-1.005-2.355z"/>
    <path fill="#3AB2B3" d="M40.053 37.81c-1.164.115-1.66 1.54-.822 2.355l1.94 1.949 1.948-1.95-1.949-1.938c-.29-.301-.7-.454-1.117-.416zm8.902 12.079l1.94 1.949c1.298 1.299 3.247-.65 1.948-1.95l-1.949-1.938-1.939 1.939z"/>
    <path fill="#3AB2B3" d="M36.31 35.305c-5.359 5.359-5.359 14.093 0 19.451 5.358 5.358 14.092 5.358 19.45 0 5.359-5.358 5.359-14.092 0-19.45-5.358-5.359-14.092-5.359-19.45 0zm1.945 1.945c4.307-4.307 11.253-4.307 15.56 0 4.308 4.308 4.308 11.254 0 15.56-4.307 4.308-11.253 4.308-15.56 0-4.308-4.306-4.308-11.252 0-15.56zM4.81 63.236c-.705.044-1.262.614-1.29 1.32L2.67 82.44c-.032.783.597 1.435 1.38 1.43l46.827.006v-2.75L5.49 81.13l.781-16.443c.048-.825-.637-1.505-1.461-1.452zm.274-4.11c-1.834 0-1.834 2.75 0 2.75s1.834-2.75 0-2.75zm6.658-40.866l-5.887 5.481c-.263.246-.42.585-.436.945L3.918 56.314c-.089 1.834 2.662 1.966 2.75.132l1.472-31.07 5.481-5.106-1.878-2.01zM27.477 4.1c-.76.014-1.365.642-1.35 1.401v20.626c0 1.834 2.75 1.834 2.75 0V5.5c.015-.78-.62-1.415-1.4-1.4z"/>
</svg>
