<svg xmlns="http://www.w3.org/2000/svg" width="84" height="84" fill="none" viewBox="0 0 84 84">
    <path fill="#3AB2B3" d="M42 81.6c-.18 0-.362-.041-.528-.122C21.627 71.759 9.3 54.099 9.3 35.392v-20.9c0-.512.324-.967.808-1.134l31.5-10.893c.253-.086.53-.086.784 0l31.5 10.893c.483.167.808.622.808 1.134v20.9c0 18.707-12.328 36.367-32.172 46.086-.167.08-.348.122-.528.122zM11.7 15.347V35.39c0 17.62 11.594 34.306 30.3 43.67 18.706-9.364 30.3-26.05 30.3-43.67V15.348L42 4.869 11.7 15.347z"/>
    <path fill="#3AB2B3" d="M54.549 64.148H29.452c-2.432 0-4.411-1.908-4.411-4.251V38.972c0-.664.537-1.2 1.2-1.2H57.76c.663 0 1.2.536 1.2 1.2v20.925c0 2.343-1.979 4.251-4.411 4.251zM27.44 40.172v19.725c0 1.02.902 1.851 2.011 1.851h25.097c1.108 0 2.01-.83 2.01-1.851V40.172H27.442z"/>
    <path fill="#3AB2B3" d="M52.9 40.172H31.1c-.662 0-1.2-.537-1.2-1.2v-9.675c0-6.672 5.428-12.099 12.1-12.099 6.67 0 12.098 5.427 12.098 12.099v9.675c0 .663-.537 1.2-1.2 1.2zm-20.599-2.4H51.7v-8.475c0-5.348-4.35-9.699-9.699-9.699-5.347 0-9.699 4.351-9.699 9.699v8.475zm13.705 20.746h-7.678c-.369 0-.717-.17-.945-.459-.227-.29-.309-.67-.22-1.026l1.062-4.324c-1.238-1.11-1.956-2.694-1.956-4.381 0-3.252 2.646-5.898 5.898-5.898s5.898 2.646 5.898 5.898c0 1.687-.718 3.272-1.955 4.381l1.062 4.323c.088.358.006.736-.221 1.027-.228.29-.576.46-.945.46zm-6.148-2.4h4.618l-.882-3.59c-.121-.491.08-1.006.502-1.286.982-.652 1.569-1.741 1.569-2.914 0-1.93-1.57-3.498-3.498-3.498-1.928 0-3.498 1.569-3.498 3.498 0 1.173.587 2.261 1.57 2.914.421.28.622.795.502 1.286l-.883 3.59z"/>
</svg>
