<svg xmlns="http://www.w3.org/2000/svg" width="32" height="33" fill="none" viewBox="0 0 32 33">
    <path fill="rgb(58, 178, 179)" d="M25.334 5.5H6.667c-1.06 0-2.078.435-2.828 1.208-.75.774-1.172 1.823-1.172 2.917v13.75c0 1.094.421 2.143 1.172 2.917.75.773 1.767 1.208 2.828 1.208h18.667c1.06 0 2.078-.435 2.828-1.208.75-.774 1.172-1.823 1.172-2.917V9.625c0-1.094-.422-2.143-1.172-2.917-.75-.773-1.767-1.208-2.828-1.208zm0 2.75l-8.667 6.146c-.203.12-.433.184-.667.184-.234 0-.464-.063-.666-.184L6.667 8.25h18.667z"/>
</svg>
