<svg xmlns="http://www.w3.org/2000/svg" width="35" height="35" fill="none" viewBox="0 0 35 35">
    <path fill="url(#paint0_linear)" fill-rule="evenodd" d="M17.5 0C27.165 0 35 7.835 35 17.5S27.165 35 17.5 35 0 27.165 0 17.5 7.835 0 17.5 0z" clip-rule="evenodd"/>
    <path fill="#fff" fill-rule="evenodd" d="M17.6 10.385c3.233.19 5.126 1.612 5.31 2.94.09.868-.487 1.543-1.488 1.543-1.463 0-1.612-1.95-4.13-1.95-1.135 0-2.095.473-2.095 1.497.001 2.14 8.069.897 8.069 5.61 0 2.717-2.174 4.497-5.42 4.497-2.855 0-5.725-1.294-5.71-3.523.005-.672.506-1.289 1.174-1.289 1.681 0 1.665 2.498 4.342 2.498 1.877 0 2.519-1.025 2.519-1.738 0-2.58-8.116-.998-8.116-5.848 0-2.625 2.156-4.435 5.545-4.237zm1.77 16.968c5.18 3.131 11.244-2.863 7.991-8.096 1.215-6.939-4.857-12.876-11.714-11.6-5.166-3.148-11.257 2.826-8.018 8.07-1.236 6.886 4.8 12.95 11.742 11.626z" clip-rule="evenodd"/>
    <defs>
        <linearGradient id="paint0_linear" x1="4.637" x2="32.415" y1="5.634" y2="26.659" gradientUnits="userSpaceOnUse">
            <stop stop-color="#178CC8"/>
            <stop offset="1" stop-color="#00ABEB"/>
        </linearGradient>
    </defs>
</svg>
