<svg xmlns="http://www.w3.org/2000/svg" width="35" height="35" fill="none" viewBox="0 0 35 35">
    <g clip-path="url(#clip0)">
        <path fill="#55ACEE" d="M17.5 35C27.167 35 35 27.165 35 17.5S27.167 0 17.5 0C7.837 0 .002 7.835.002 17.5S7.836 35 17.501 35z"/>
        <path fill="#F1F2F2" d="M28.22 12.576c-.75.333-1.557.558-2.403.658.864-.517 1.527-1.336 1.84-2.313-.809.48-1.704.827-2.657 1.014-.763-.812-1.85-1.32-3.054-1.32-2.31 0-4.183 1.873-4.183 4.183 0 .328.037.647.11.953-3.477-.174-6.56-1.84-8.623-4.37-.36.617-.566 1.336-.566 2.102 0 1.451.739 2.732 1.86 3.482-.685-.021-1.33-.21-1.894-.524v.053c0 2.027 1.442 3.718 3.355 4.102-.35.096-.72.146-1.102.146-.27 0-.531-.025-.787-.074.533 1.661 2.077 2.87 3.908 2.905-1.432 1.122-3.235 1.79-5.196 1.79-.337 0-.67-.02-.997-.058 1.85 1.187 4.05 1.88 6.412 1.88 7.694 0 11.901-6.374 11.901-11.903 0-.18-.004-.361-.012-.54.818-.59 1.527-1.327 2.088-2.166z"/>
    </g>
    <defs>
        <clipPath id="clip0">
            <path fill="#fff" d="M0 0H35V35H0z"/>
        </clipPath>
    </defs>
</svg>
